<svg xmlns="http://www.w3.org/2000/svg" viewBox="0 0 48 48" width="48px" height="48px"><linearGradient id="Lg" x1="9.993" x2="40.615" y1="9.993" y2="40.615" gradientUnits="userSpaceOnUse"><stop offset="0" stop-color="#2aa4f4"/><stop offset="1" stop-color="#007ad9"/></linearGradient><path fill="url(#Lg)" d="M24,4C12.955,4,4,12.955,4,24s8.955,20,20,20s20-8.955,20-20S35.045,4,24,4z"/><path fill="#fff" d="M26.707,35v-9h3.039l0.455-3.539h-3.494v-2.259c0-1.025,0.285-1.723,1.756-1.723l1.877-0.001V15.3 c-0.325-0.043-1.442-0.14-2.741-0.14c-2.714,0-4.571,1.657-4.571,4.699v2.622h-3.069V26h3.069v9H26.707z"/></svg>