<svg xmlns="http://www.w3.org/2000/svg" viewBox="0 0 48 48" width="24" height="24" aria-hidden="true"><path fill="#1877F2" d="M24 4C12.95 4 4 12.95 4 24c0 9.95 7.55 18.18 17.32 19.78V29.68h-5.21V24h5.21v-4.28c0-5.14 3.06-7.97 7.75-7.97 2.25 0 4.6.4 4.6.4v5.06h-2.59c-2.55 0-3.35 1.58-3.35 3.2V24h5.7l-.91 5.68h-4.79v14.1C36.45 42.18 44 33.95 44 24 44 12.95 35.05 4 24 4z"/><path fill="#FFF" d="M32.16 29.68L33.07 24h-5.7v-3.59c0-1.62.8-3.2 3.35-3.2h2.59v-5.06s-2.35-.4-4.6-.4c-4.68 0-7.75 2.83-7.75 7.97V24h-5.21v5.68h5.21v14.1c1.03.17 2.09.27 3.19.27 1.1 0 2.16-.1 3.19-.27v-14.1h4.79z"/></svg>