<svg xmlns="http://www.w3.org/2000/svg" viewBox="0 0 48 48" width="24" height="24" aria-hidden="true"><path fill="#FFC107" d="M43.6 20.5H42V20H24v8h11.3C33.9 32.6 29.5 36 24 36c-6.6 0-12-5.4-12-12s5.4-12 12-12c3.1 0 5.9 1.2 8 3.1l5.7-5.7C34.6 6 29.6 4 24 4 12.9 4 4 12.9 4 24s8.9 20 20 20 20-8.9 20-20c0-1.3-.1-2.3-.4-3.5z"/><path fill="#FF3D00" d="M6.3 14.7l6.6 4.8C14.7 16.1 18.9 14 24 14c3.1 0 5.9 1.2 8 3.1l5.7-5.7C34.6 6 29.6 4 24 4 16.5 4 10 8.3 6.3 14.7z"/><path fill="#4CAF50" d="M24 44c5.4 0 10.3-2.1 13.9-5.5l-6.4-5.3C29.5 36 26.9 37 24 37c-5.4 0-9.8-3.6-11.3-8.5l-6.6 5.1C10 40 16.4 44 24 44z"/><path fill="#1976D2" d="M43.6 20.5H42V20H24v8h11.3c-1 2.9-3.1 5.1-5.8 6.2l.1.1 6.4 5.3c-.5.5 8-4.7 8-15.6 0-1.3-.1-2.3-.4-3.5z"/></svg>